<svg width="35" height="36" viewBox="0 0 35 36" fill="none" xmlns="http://www.w3.org/2000/svg">
<path d="M25.3202 13.1339C25.4422 13.2558 25.539 13.4006 25.6051 13.5599C25.6711 13.7192 25.7051 13.89 25.7051 14.0625C25.7051 14.235 25.6711 14.4058 25.6051 14.5651C25.539 14.7244 25.4422 14.8692 25.3202 14.9911L16.1327 24.1786C16.0108 24.3006 15.8661 24.3974 15.7067 24.4635C15.5474 24.5295 15.3766 24.5635 15.2041 24.5635C15.0316 24.5635 14.8608 24.5295 14.7015 24.4635C14.5422 24.3974 14.3974 24.3006 14.2755 24.1786L10.338 20.2411C10.0917 19.9948 9.95338 19.6608 9.95338 19.3125C9.95338 18.9642 10.0917 18.6302 10.338 18.3839C10.5843 18.1376 10.9183 17.9993 11.2666 17.9993C11.6149 17.9993 11.9489 18.1376 12.1952 18.3839L15.2041 21.3945L23.463 13.1339C23.5849 13.0119 23.7297 12.9151 23.889 12.849C24.0483 12.783 24.2191 12.749 24.3916 12.749C24.5641 12.749 24.7349 12.783 24.8942 12.849C25.0536 12.9151 25.1983 13.0119 25.3202 13.1339ZM34.8916 18C34.8916 21.3746 33.8909 24.6735 32.0161 27.4794C30.1412 30.2853 27.4764 32.4723 24.3586 33.7637C21.2409 35.0551 17.8102 35.393 14.5004 34.7346C11.1906 34.0763 8.15033 32.4512 5.7641 30.065C3.37787 27.6788 1.75282 24.6385 1.09446 21.3287C0.4361 18.0189 0.773994 14.5882 2.06541 11.4705C3.35683 8.3527 5.54378 5.6879 8.34969 3.81305C11.1556 1.9382 14.4545 0.9375 17.8291 0.9375C22.3529 0.942277 26.69 2.74146 29.8888 5.94027C33.0876 9.13907 34.8868 13.4762 34.8916 18ZM32.2666 18C32.2666 15.1445 31.4199 12.3532 29.8335 9.97895C28.247 7.60472 25.9922 5.75423 23.3541 4.66149C20.716 3.56875 17.8131 3.28284 15.0125 3.83991C12.2119 4.39699 9.63938 5.77203 7.62026 7.79115C5.60113 9.81027 4.2261 12.3828 3.66902 15.1834C3.11195 17.984 3.39786 20.8869 4.4906 23.525C5.58334 26.1631 7.43383 28.4179 9.80806 30.0043C12.1823 31.5908 14.9736 32.4375 17.8291 32.4375C21.6568 32.4332 25.3266 30.9107 28.0332 28.2041C30.7398 25.4974 32.2623 21.8277 32.2666 18Z" fill="#3D00B7"/>
</svg>
