<svg width="36" height="36" viewBox="0 0 36 36" fill="none" xmlns="http://www.w3.org/2000/svg">
<path d="M30.0654 5.93481C26.8655 2.73493 22.5255 0.937256 18.0002 0.937256C13.4749 0.937256 9.13493 2.73493 5.93505 5.93481C2.73517 9.13469 0.9375 13.4747 0.9375 18C0.9375 22.5253 2.73517 26.8652 5.93505 30.0651C9.13493 33.265 13.4749 35.0627 18.0002 35.0627C22.5255 35.0627 26.8655 33.265 30.0654 30.0651C33.2652 26.8652 35.0629 22.5253 35.0629 18C35.0629 13.4747 33.2652 9.13469 30.0654 5.93481ZM11.4377 28.5C11.4377 27.8038 11.7143 27.1361 12.2066 26.6438C12.6988 26.1515 13.3665 25.875 14.0627 25.875C14.7589 25.875 15.4266 26.1515 15.9189 26.6438C16.4111 27.1361 16.6877 27.8038 16.6877 28.5V32.3702C14.8574 32.2047 13.0755 31.6913 11.4377 30.8575V28.5ZM19.3127 28.5C19.3127 27.8038 19.5893 27.1361 20.0816 26.6438C20.5738 26.1515 21.2415 25.875 21.9377 25.875C22.6339 25.875 23.3016 26.1515 23.7939 26.6438C24.2861 27.1361 24.5627 27.8038 24.5627 28.5V30.8575C22.9249 31.6913 21.143 32.2047 19.3127 32.3702V28.5ZM14.5992 19.3125H21.4012L23.3011 23.4304C22.356 23.1757 21.3584 23.1908 20.4215 23.4742C19.4846 23.7575 18.6458 24.2976 18.0002 25.0333C17.3546 24.2976 16.5158 23.7575 15.5789 23.4742C14.642 23.1908 13.6444 23.1757 12.6993 23.4304L14.5992 19.3125ZM15.8116 16.6875L18.0002 11.9444L20.1888 16.6875H15.8116ZM28.2082 28.2096C27.8801 28.5377 27.5388 28.8445 27.1877 29.1349V25.875C27.1879 25.6851 27.1465 25.4975 27.0663 25.3254L19.1913 8.26285C19.0861 8.03555 18.918 7.8431 18.707 7.70822C18.4959 7.57334 18.2507 7.50167 18.0002 7.50167C17.7497 7.50167 17.5045 7.57334 17.2934 7.70822C17.0824 7.8431 16.9143 8.03555 16.8091 8.26285L8.93411 25.3254C8.85392 25.4975 8.81248 25.6851 8.81271 25.875V29.1349C8.46161 28.8445 8.12036 28.5377 7.79224 28.2096C5.77287 26.1906 4.39758 23.618 3.8403 20.8174C3.28303 18.0167 3.56879 15.1137 4.66146 12.4754C5.75412 9.83717 7.60461 7.58219 9.9789 5.99566C12.3532 4.40914 15.1446 3.56233 18.0002 3.56233C20.8558 3.56233 23.6472 4.40914 26.0215 5.99566C28.3958 7.58219 30.2463 9.83717 31.339 12.4754C32.4316 15.1137 32.7174 18.0167 32.1601 20.8174C31.6028 23.618 30.2275 26.1906 28.2082 28.2096Z" fill="#3D00B7"/>
</svg>
