<svg width="35" height="36" viewBox="0 0 35 36" fill="none" xmlns="http://www.w3.org/2000/svg">
<path d="M24.3917 6.18752C24.3917 5.83942 24.53 5.50558 24.7762 5.25944C25.0223 5.0133 25.3561 4.87502 25.7042 4.87502H33.5792C33.9273 4.87502 34.2612 5.0133 34.5073 5.25944C34.7535 5.50558 34.8917 5.83942 34.8917 6.18752C34.8917 6.53561 34.7535 6.86945 34.5073 7.1156C34.2612 7.36174 33.9273 7.50002 33.5792 7.50002H25.7042C25.3561 7.50002 25.0223 7.36174 24.7762 7.1156C24.53 6.86945 24.3917 6.53561 24.3917 6.18752ZM34.6555 15.1585C35.2551 18.7228 34.7064 22.3855 33.0887 25.6177C31.471 28.8499 28.8679 31.4844 25.6553 33.1407C22.4428 34.7971 18.7869 35.3896 15.2156 34.8327C11.6443 34.2758 8.34243 32.5984 5.78663 30.0426C3.23084 27.4868 1.55341 24.1849 0.996549 20.6136C0.439685 17.0423 1.0322 13.3865 2.68854 10.1739C4.34488 6.96132 6.97934 4.35824 10.2115 2.74052C13.4437 1.1228 17.1064 0.574145 20.6708 1.17377C21.0115 1.23402 21.3146 1.42636 21.5143 1.70896C21.7139 1.99155 21.7938 2.34154 21.7367 2.68279C21.6797 3.02403 21.4901 3.32893 21.2094 3.53116C20.9287 3.7334 20.5794 3.8166 20.2377 3.76267C18.1674 3.41441 16.0461 3.52146 14.0215 4.07637C11.9968 4.63128 10.1174 5.62072 8.51396 6.97584C6.91056 8.33095 5.62171 10.0192 4.73711 11.9231C3.85251 13.8269 3.3934 15.9007 3.39174 18C3.38863 21.5342 4.68758 24.9458 7.04049 27.5829C8.5043 25.4617 10.5626 23.8207 12.9566 22.8661C11.6706 21.8533 10.7323 20.4649 10.272 18.894C9.81169 17.3231 9.85236 15.6478 10.3883 14.1011C10.9243 12.5545 11.9289 11.2132 13.2625 10.264C14.5961 9.3147 16.1923 8.80461 17.8292 8.80461C19.4662 8.80461 21.0624 9.3147 22.396 10.264C23.7296 11.2132 24.7342 12.5545 25.2701 14.1011C25.8061 15.6478 25.8468 17.3231 25.3865 18.894C24.9262 20.4649 23.9878 21.8533 22.7019 22.8661C25.0959 23.8207 27.1542 25.4617 28.618 27.5829C30.9709 24.9458 32.2698 21.5342 32.2667 18C32.2668 17.193 32.1998 16.3875 32.0666 15.5916C32.0364 15.4208 32.0403 15.2458 32.0782 15.0766C32.116 14.9074 32.187 14.7474 32.287 14.6058C32.387 14.4641 32.5141 14.3438 32.661 14.2515C32.8078 14.1593 32.9714 14.0971 33.1425 14.0685C33.3135 14.0399 33.4884 14.0455 33.6573 14.0849C33.8261 14.1243 33.9855 14.1967 34.1262 14.2981C34.2669 14.3994 34.3861 14.5276 34.4769 14.6753C34.5678 14.823 34.6285 14.9872 34.6555 15.1585ZM17.8292 21.9375C18.8676 21.9375 19.8826 21.6296 20.746 21.0527C21.6093 20.4759 22.2822 19.6559 22.6796 18.6966C23.077 17.7373 23.1809 16.6817 22.9784 15.6633C22.7758 14.6449 22.2758 13.7094 21.5415 12.9752C20.8073 12.241 19.8719 11.741 18.8535 11.5384C17.8351 11.3358 16.7795 11.4398 15.8201 11.8371C14.8608 12.2345 14.0409 12.9074 13.464 13.7708C12.8871 14.6341 12.5792 15.6492 12.5792 16.6875C12.5792 18.0799 13.1324 19.4153 14.1169 20.3998C15.1015 21.3844 16.4368 21.9375 17.8292 21.9375ZM17.8292 32.4375C21.034 32.4407 24.1478 31.3724 26.6755 29.4024C25.726 27.9174 24.418 26.6954 22.872 25.8489C21.326 25.0024 19.5918 24.5587 17.8292 24.5587C16.0667 24.5587 14.3325 25.0024 12.7865 25.8489C11.2405 26.6954 9.93247 27.9174 8.98299 29.4024C11.5107 31.3724 14.6245 32.4407 17.8292 32.4375Z" fill="#FB3F33"/>
</svg>
